Coordinates
version=1
nRows=8
nColumns=36
inDegrees=yes

Units are S.I. units (second, meters, Newtons, ...)
If the header above contains a line with 'inDegrees', this indicates whether rotational values are in degrees (yes) or radians (no).

endheader
time	pelvis_tilt	pelvis_list	pelvis_rotation	pelvis_tx	pelvis_ty	pelvis_tz	hip_flexion_r	hip_adduction_r	hip_rotation_r	knee_angle_r	knee_angle_r_beta	ankle_angle_r	subtalar_angle_r	mtp_angle_r	hip_flexion_l	hip_adduction_l	hip_rotation_l	knee_angle_l	knee_angle_l_beta	ankle_angle_l	subtalar_angle_l	mtp_angle_l	lumbar_extension	lumbar_bending	lumbar_rotation	arm_flex_r	arm_add_r	arm_rot_r	elbow_flex_r	pro_sup_r	arm_flex_l	arm_add_l	arm_rot_l	elbow_flex_l	pro_sup_l
      1.28000000	      2.29058691	     -0.08511319	      3.29590337	     -0.44253199	      1.20150389	     -0.55117832	     11.89690496	     -0.19556417	    -14.58610607	      3.62578922	      0.06328196	    -23.78697467	      7.86975862	     -7.42161162	     13.13170362	     -2.50629219	    -11.33223596	      3.16206377	      0.05518842	    -26.34226794	     10.36189296	     -7.42161162	     -8.10430076	     -0.87171208	    -22.48982408	     41.21992208	    -68.53387187	     18.12478473	    134.97640228	    103.35212711	    -60.77317024	    -44.39653651	    -83.39915450	    143.52548111	     92.97509088
      1.29000000	      3.03619768	     -0.15491315	      3.73162554	     -0.42979930	      1.18046643	     -0.55114227	     11.90875726	     -0.45121036	    -14.90470169	      5.50664747	      0.09610913	    -24.64261054	      6.40449095	     -7.44032479	     13.26390602	     -2.82719402	    -10.70444196	      5.33906911	      0.09318434	    -27.40071504	      9.92703669	     -7.44032479	     -8.69401125	     -1.08416346	    -21.88902607	     30.35310633	    -69.58270048	      5.86431379	    137.56157185	    103.37495421	    -60.59693386	    -43.61093588	    -82.46727030	    144.69898433	     94.49295369
      1.30000000	      3.89456666	     -0.27355009	      4.17315390	     -0.41758675	      1.15850647	     -0.55115951	     12.11244387	     -0.71331681	    -14.93614199	      8.14745555	      0.14219992	    -26.25144198	      4.65947678	     -7.45756280	     13.53186463	     -3.18329624	     -9.47476562	      8.00267507	      0.13967303	    -29.03807809	      9.14616014	     -7.45756280	     -9.46301369	     -1.18042189	    -21.46156305	     20.07803868	    -69.42807863	     -6.09134619	    140.03756061	    103.69386082	    -60.14756509	    -42.49612360	    -81.40300007	    145.76991493	     96.55696730
      1.31000000	      4.81633732	     -0.43558489	      4.59930577	     -0.40600756	      1.13585671	     -0.55132455	     12.55079248	     -1.02525777	    -14.65112135	     11.38074666	      0.19863150	    -28.19495352	      3.68225303	     -7.47109639	     13.90250852	     -3.46694067	     -7.41490299	     10.96706576	      0.19141141	    -30.61721178	      8.05867980	     -7.47109639	    -10.40381867	     -1.12728149	    -20.83552067	      9.95934050	    -68.39397521	    -18.12443876	    142.42893451	    104.91929417	    -58.86533618	    -41.54949924	    -79.66592584	    146.59063552	     99.66416417
      1.32000000	      5.55078177	     -0.61609601	      4.89514110	     -0.39526203	      1.11234193	     -0.55132390	     13.42260658	     -1.20794616	    -13.03747097	     15.62455675	      0.27269996	    -27.20345290	      2.55970452	     -7.47963978	     14.61736582	     -3.56848019	     -4.43238373	     14.98126646	      0.26147243	    -28.46391915	      6.03292650	     -7.47963978	    -11.19435906	     -1.02401854	    -20.25717547	      2.68026804	    -66.44317153	    -27.12039220	    144.37249896	    106.18558179	    -57.00870327	    -40.28534842	    -77.53138729	    147.16017810	    102.37034002
      1.33000000	      6.21015344	     -0.76884979	      5.02395393	     -0.38514289	      1.08773400	     -0.55102384	     14.76557888	     -1.33514722	    -11.19886395	     22.07410267	      0.38526577	    -18.91467944	      1.62389019	     -7.48599744	     15.80951295	     -3.65780136	     -2.26511148	     21.20657127	      0.37012449	    -19.10800282	      3.86954899	     -7.48599744	    -11.92229471	     -0.94363187	    -19.35722809	     -3.00217376	    -64.10134483	    -34.39404627	    146.14011586	    107.49536893	    -54.73307688	    -39.28932637	    -74.86805685	    147.51537738	    104.27901973
      1.34000000	      6.97592919	     -0.86508538	      5.03598608	     -0.37558269	      1.06239039	     -0.55048498	     16.28602445	     -1.42958552	     -9.98118241	     29.90082230	      0.52186780	     -5.93297970	      1.22821757	     -7.49080255	     17.28960248	     -3.84753131	     -1.45216097	     28.77120841	      0.50215232	     -6.07760084	      2.57399941	     -7.49080255	    -12.77623956	     -0.94378492	    -18.55486038	     -6.05325885	    -61.43991181	    -38.99978055	    147.48699552	    108.88980142	    -52.58960153	    -38.20433310	    -72.22294418	    147.69424920	    105.50946335
      1.35000000	      7.49012626	     -1.02963639	      5.01401768	     -0.36725503	      1.03789201	     -0.54969701	     17.93797926	     -1.19015873	     -9.11785466	     36.62619236	      0.63924765	      4.60737495	      0.35162707	     -7.49356517	     19.18457364	     -4.09777269	     -1.12573033	     35.68474868	      0.62281636	      4.01820712	      1.57944264	     -7.49356517	    -13.40390297	     -0.92914593	    -17.88695583	     -7.10058974	    -58.23623677	    -41.19501935	    148.32125337	    110.54184343	    -50.13958746	    -36.90877779	    -69.12882673	    147.54658037	    106.12132266
